<?xml version="1.0" standalone="no"?>
<!DOCTYPE svg PUBLIC "-//W3C//DTD SVG 20010904//EN"
 "http://www.w3.org/TR/2001/REC-SVG-20010904/DTD/svg10.dtd">
<svg version="1.0" xmlns="http://www.w3.org/2000/svg"
 width="195.000000pt" height="195.000000pt" viewBox="0 0 195.000000 195.000000"
 preserveAspectRatio="xMidYMid meet">
<metadata>
Created by potrace 1.16, written by Peter Selinger 2001-2019
</metadata>
<g transform="translate(0.000000,195.000000) scale(0.100000,-0.100000)"
fill="#000000" stroke="none">
<path d="M785 1915 c-360 -79 -639 -345 -737 -702 -18 -65 -21 -106 -21 -238
0 -185 16 -262 82 -402 76 -159 161 -264 294 -364 482 -363 1171 -197 1437
346 276 563 -54 1229 -673 1360 -84 18 -299 18 -382 0z m360 -10 c90 -19 174
-47 157 -53 -7 -2 -55 4 -107 13 -145 26 -361 17 -475 -20 -312 -101 -507
-300 -634 -647 -18 -48 -37 -74 -31 -41 41 204 108 335 244 477 134 139 295
228 492 271 85 18 267 18 354 0z m-75 -66 c67 -29 85 -67 65 -135 -18 -63 -14
-242 6 -255 9 -6 -7 -9 -45 -9 -51 0 -57 -2 -46 -15 9 -11 9 -15 1 -15 -7 0
-9 -4 -6 -10 3 -5 15 -10 27 -10 15 0 18 4 14 16 -6 14 -4 15 9 4 13 -11 13
-15 3 -21 -7 -5 -21 -9 -30 -9 -23 0 -23 -2 7 -46 14 -20 25 -45 25 -54 0 -10
8 -27 18 -39 15 -19 21 -20 52 -11 41 12 126 3 157 -16 12 -8 28 -11 35 -9 8
3 24 -8 36 -25 13 -16 29 -30 37 -30 17 0 17 -2 9 -24 -3 -9 -14 -16 -23 -15
-10 0 -11 2 -3 6 18 7 15 23 -4 23 -14 0 -15 -7 -11 -37 7 -41 39 -89 56 -86
17 4 13 -13 -6 -28 -12 -10 -15 -10 -9 -1 7 12 -40 72 -56 72 -4 0 -21 -20
-38 -45 -32 -46 -74 -75 -108 -75 -11 0 -43 16 -72 35 -29 19 -57 35 -62 35
-8 0 -9 -32 -4 -96 5 -67 3 -100 -5 -110 -8 -10 -8 -14 0 -14 6 0 11 -6 11
-14 0 -9 -9 -13 -25 -11 -14 1 -25 -2 -25 -6 0 -5 7 -9 15 -9 8 0 15 -4 15
-10 0 -5 -11 -10 -25 -10 -18 0 -25 -5 -25 -20 0 -11 5 -20 12 -20 6 0 8 -3 5
-6 -4 -4 -13 -2 -20 4 -8 7 -17 8 -22 4 -4 -4 -5 3 -2 16 5 21 3 22 -81 23
-82 0 -85 1 -52 13 31 11 32 13 12 18 -31 8 -27 28 6 29 21 1 22 3 6 6 -18 3
-23 14 -28 64 -4 32 -11 59 -16 59 -6 0 -6 10 0 26 12 31 -3 64 -28 64 -10 0
-27 18 -40 44 l-24 44 27 46 c34 59 41 59 13 1 -17 -35 -20 -51 -12 -72 8 -25
65 -73 85 -73 5 0 9 58 9 129 0 126 9 180 36 212 21 24 17 36 -16 43 -16 3
-30 11 -30 18 0 9 3 9 12 0 18 -18 28 -15 29 11 1 15 3 17 6 5 6 -22 33 -32
33 -12 0 14 2 14 16 0 22 -23 34 -20 34 9 0 25 -1 25 -87 26 -49 1 -78 4 -65
6 26 5 26 6 10 50 -9 26 -9 43 1 83 11 42 10 59 -4 115 -14 59 -14 67 0 96 18
34 82 68 128 69 16 0 50 -9 77 -21z m-89 -1329 c16 0 32 7 38 17 8 14 12 15
25 4 9 -7 29 -11 46 -9 28 4 29 4 14 -14 -16 -17 -14 -19 29 -37 69 -30 138
-49 203 -56 75 -8 108 -15 101 -21 -12 -12 -184 20 -273 51 -138 48 -220 48
-358 0 -89 -31 -261 -63 -273 -51 -7 6 26 13 101 21 65 7 134 26 203 56 43 18
45 20 27 34 -18 13 -17 14 12 15 21 0 34 6 39 18 6 15 8 15 22 -5 10 -15 26
-23 44 -23z m144 -96 c20 -13 27 -13 45 -2 18 11 23 10 38 -8 13 -16 37 -25
97 -34 44 -7 89 -16 102 -21 20 -7 21 -11 10 -38 -14 -38 -29 -41 -22 -3 l5
27 -11 -25 c-10 -21 -13 -22 -16 -7 -3 9 -9 17 -15 17 -5 0 -8 -7 -4 -15 3 -8
1 -15 -4 -15 -15 0 -12 48 3 53 7 2 6 3 -3 3 -9 -1 -16 -13 -18 -34 -4 -37
-11 -39 -43 -12 l-24 20 25 20 25 20 -22 0 c-13 0 -23 -6 -23 -12 0 -24 -16
-39 -34 -32 -13 5 -16 14 -12 33 3 14 3 20 0 14 -3 -7 -15 -13 -27 -13 -22 -1
-22 -1 -3 -15 18 -13 18 -15 3 -15 -26 0 -34 30 -12 46 17 13 17 14 2 14 -9 0
-17 -4 -17 -8 0 -5 -7 -17 -15 -28 -15 -18 -16 -17 -10 16 4 29 3 31 -5 13
-10 -25 -26 -32 -16 -8 3 8 1 15 -4 15 -6 0 -10 -8 -10 -17 0 -15 -2 -14 -14
3 -16 22 -18 64 -4 64 5 0 19 -7 33 -16z"/>
<path d="M939 1797 c8 -10 9 -17 3 -17 -6 0 -18 -7 -26 -16 -9 -8 -16 -11 -16
-5 0 5 -9 9 -20 8 -19 -1 -19 -1 1 -23 11 -11 17 -27 14 -35 -3 -8 1 -23 8
-33 15 -20 47 -28 115 -28 25 0 42 -4 42 -11 1 -28 40 38 40 68 0 25 5 34 23
40 22 8 22 8 -3 12 -14 3 -28 10 -32 17 -6 8 -11 7 -19 -4 -9 -13 -10 -13 -6
2 3 9 -1 22 -9 28 -11 10 -14 10 -14 0 0 -7 -7 -10 -16 -6 -10 4 -13 2 -9 -7
4 -6 0 -4 -8 5 -10 12 -17 14 -24 7 -8 -8 -18 -7 -34 2 -22 11 -23 11 -10 -4z"/>
<path d="M946 1609 c-3 -17 -10 -28 -14 -25 -11 6 -46 -31 -55 -57 -5 -13 3
-27 25 -48 18 -16 37 -29 43 -29 5 0 3 5 -5 11 -11 7 6 8 58 3 68 -6 75 -4 98
17 29 28 30 48 4 77 -21 23 -36 30 -25 12 3 -5 1 -10 -4 -10 -6 0 -18 15 -26
33 -10 21 -14 25 -14 12 2 -34 -1 -41 -11 -25 -8 12 -10 11 -10 -6 0 -17 8
-23 35 -28 20 -4 33 -11 30 -16 -3 -4 4 -6 15 -3 15 4 19 2 14 -10 -3 -9 -11
-17 -17 -20 -27 -9 -98 -7 -117 3 -14 7 -20 7 -20 0 0 -5 -7 -10 -16 -10 -9 0
-12 5 -8 12 5 8 2 9 -9 5 -20 -7 -29 5 -21 28 5 11 17 16 38 15 54 -3 56 -2
56 42 0 45 -9 48 -12 5 -1 -15 -7 -26 -13 -24 -5 2 -9 18 -7 35 4 41 -4 41
-12 1z"/>
<path d="M965 1355 c-17 -17 -25 -33 -22 -45 3 -11 -1 -24 -9 -31 -8 -6 -11
-15 -8 -20 8 -13 25 0 18 14 -3 7 1 4 10 -7 11 -14 23 -17 45 -13 17 4 33 3
36 -2 2 -5 -1 -8 -8 -8 -22 1 -97 -15 -97 -22 0 -3 5 -13 10 -21 8 -13 10 -12
10 3 0 12 8 17 28 17 21 0 24 -2 12 -10 -13 -8 -12 -10 3 -10 19 0 21 -8 8
-29 -5 -7 -14 -10 -20 -7 -6 4 -11 2 -11 -3 0 -6 7 -11 15 -11 9 0 12 -6 9
-15 -4 -9 0 -15 10 -15 9 0 15 3 15 8 -4 22 2 62 9 62 12 0 1 -80 -12 -80 -6
0 -3 -5 6 -11 27 -16 10 -39 -31 -40 l-36 -2 40 -6 c28 -4 36 -9 26 -15 -11
-7 -11 -10 0 -17 14 -8 20 -99 7 -99 -5 0 -8 5 -8 12 0 6 -3 9 -6 5 -3 -3 -6
-25 -6 -49 -1 -82 1 -90 17 -84 8 3 15 2 15 -2 0 -4 9 -8 20 -9 11 -1 20 2 20
8 0 5 -8 9 -17 10 -11 0 -13 3 -5 6 14 6 16 39 2 48 -5 3 -10 11 -10 16 0 6 4
8 8 5 12 -7 14 64 3 78 -5 6 -9 52 -9 103 0 51 -3 97 -6 102 -4 5 -1 13 5 16
5 4 8 13 5 21 -3 8 0 14 6 14 6 0 8 3 5 7 -4 3 -2 12 3 18 7 9 6 16 -5 25 -8
7 -15 27 -15 45 0 24 -7 37 -25 49 -31 20 -27 21 -60 -9z"/>
<path d="M1162 1185 c-6 -14 -18 -25 -27 -25 -18 0 -19 -29 -4 -84 11 -38 87
-126 110 -126 23 0 79 51 99 90 11 21 22 56 26 78 5 34 4 40 -16 45 -12 3 -24
15 -27 26 -5 19 -13 21 -78 21 -67 0 -73 -2 -83 -25z"/>
</g>
</svg>
